<?xml version="1.0" standalone="no"?>
<!DOCTYPE svg PUBLIC "-//W3C//DTD SVG 20010904//EN"
 "http://www.w3.org/TR/2001/REC-SVG-20010904/DTD/svg10.dtd">
<svg version="1.0" xmlns="http://www.w3.org/2000/svg"
 width="567.000000pt" height="316.000000pt" viewBox="0 0 567.000000 316.000000"
 preserveAspectRatio="xMidYMid meet">
<metadata>
Created by potrace 1.16, written by Peter Selinger 2001-2019
</metadata>
<g transform="translate(0.000000,316.000000) scale(0.100000,-0.100000)"
fill="#000000" stroke="none">
<path d="M194 2935 c-3 -8 89 -299 205 -647 115 -348 213 -649 216 -668 4 -19
1 -57 -5 -85 -10 -44 -131 -357 -387 -998 -65 -163 -102 -272 -103 -299 0 -30
124 5 700 197 656 219 676 224 765 192 22 -8 207 -81 410 -162 735 -292 795
-315 814 -315 31 0 51 11 51 28 0 9 -95 301 -211 651 -211 633 -211 635 -206
705 4 62 24 121 159 461 303 764 330 833 326 857 -2 17 -10 24 -31 26 -17 2
-286 -82 -669 -208 -582 -193 -647 -212 -693 -207 -32 3 -185 59 -425 154
-738 295 -839 333 -875 333 -22 0 -38 -6 -41 -15z"/>
<path d="M3623 1300 c-83 -15 -181 -57 -250 -106 -241 -172 -313 -535 -159
-798 42 -72 146 -176 217 -219 102 -60 185 -82 314 -81 96 0 121 4 195 30 47
17 112 47 143 68 159 106 267 307 267 500 0 286 -170 521 -430 592 -69 18
-229 26 -297 14z"/>
<path d="M4963 1135 c-237 -64 -388 -270 -386 -525 1 -234 145 -433 361 -500
80 -25 228 -27 316 -4 195 50 342 202 377 389 13 71 6 205 -16 290 -46 177
-174 301 -363 350 -74 19 -219 19 -289 0z"/>
</g>
</svg>
